<?xml version="1.0" encoding="utf-8"?>
<!-- Generator: Adobe Illustrator 15.1.0, SVG Export Plug-In  -->
<!DOCTYPE svg PUBLIC "-//W3C//DTD SVG 1.1//EN" "http://www.w3.org/Graphics/SVG/1.1/DTD/svg11.dtd" [
	<!ENTITY ns_flows "http://ns.adobe.com/Flows/1.0/">
]>
<svg version="1.1"
	 xmlns="http://www.w3.org/2000/svg" xmlns:xlink="http://www.w3.org/1999/xlink" xmlns:a="http://ns.adobe.com/AdobeSVGViewerExtensions/3.0/"
	 x="0px" y="0px" width="95px" height="95px" viewBox="0 0 95 95" enable-background="new 0 0 95 95" xml:space="preserve">
<defs>
</defs>
<g>
	<g>
		<path fill="#9CA69C" d="M13.377,45.407c-2.557,0-4.627-0.202-5.158-1.311c-0.003-0.825,0.345-1.712,2.14-3.199
			c6.933-6.252,24.855-21.545,33.997-29.793c1.258-0.449,2.4-0.712,3.39-0.739c0.943,0,2.528,0.64,4.126,1.516
			c8.282,6.943,29.1,25.045,34.562,30.24c0.797,0.76,0.891,1.615,0.891,1.803c0,0.402-0.761,0.921-1.819,1.144
			c-0.751,0.157-1.277,0.21-1.924,0.21c-1.293,0-3.069-0.21-8.104-0.21l-0.27,29.91c0,0-0.506,4.596-4.823,4.734
			c-1.439,0.046-3.523,0.062-5.661,0.062c-4.277,0-8.773-0.062-8.773-0.062V64.991c0,0,0.66-3.523-3.379-4.638
			c-1.439,0.093-2.982,0.124-4.4,0.124c-2.836,0-5.171-0.124-5.171-0.124s-4.089,1.508-4.228,3.875
			c-0.14,2.367-0.052,15.774-0.052,15.774H24.535c0,0-4.615-1.7-4.476-5.321c0.14-3.619-0.042-26.063-0.003-29.295
			c-0.646-0.035-1.316-0.047-1.993-0.047c-0.795,0-1.601,0.017-2.391,0.033C14.884,45.39,14.111,45.407,13.377,45.407 M47.747,0
			C21.377,0,0,21.377,0,47.747s21.377,47.747,47.747,47.747s47.748-21.377,47.748-47.747S74.117,0,47.747,0"/>
	</g>
</g>
</svg>
